#!OML:ASF Y:\EmotionMaleHayes\Project 1\Capture day 1\Session 1\Male1.ASF
:FULLY-SPECIFIED
:DEGREES
141
root -1.16685 17.8851 -0.564295 107.564 76.7921 100.462
lowerback 8.50524 -5.18841 -17.499
upperback 0.454762 -8.46239 -1.87644
thorax -2.05475 -3.97394 8.37567
lowerneck -31.7051 6.40005 3.61561
upperneck 20.4315 7.4696 -0.972016
head 12.0512 3.47793 0.472493
rclavicle -5.88403e-014 -2.3059e-014
rhumerus -96.9753 16.4288 -99.4985
rradius 110.665
rwrist -21.5339
rhand -24.0306 -12.9568
rfingers 7.12502
rthumb 2.44783 -42.9225
lclavicle -5.88403e-014 -2.3059e-014
lhumerus -32.8054 -34.4028 91.655
lradius 118.775
lwrist 8.67023
lhand -44.8594 -55.7353
lfingers 7.12502
lthumb -17.6483 -26.5162
rfemur -32.588 -12.8619 11.6618
rtibia 11.3211
rfoot -176.153 -181.624
rtoes 21.5591
lfemur 25.0886 1.54357 -31.9149
ltibia 46.2039
lfoot 3.4048 3.66656
ltoes -10.1797
142
root -0.67952 17.7852 -0.59464 105.868 76.4236 98.9426
lowerback 8.04351 -5.06037 -17.5008
upperback 0.788945 -8.14837 -2.12198
thorax -1.54948 -3.87603 8.02628
lowerneck -31.6485 6.38032 3.74951
upperneck 20.1305 7.4077 -1.09434
head 11.9339 3.44751 0.386263
rclavicle -1.53064e-014 -4.03533e-014
rhumerus -95.1543 16.4329 -99.245
rradius 111.11
rwrist -21.4207
rhand -23.6928 -12.9938
rfingers 7.12502
rthumb 2.77408 -42.9555
lclavicle -1.53064e-014 -4.03533e-014
lhumerus -34.1868 -34.5967 92.1638
lradius 118.162
lwrist 9.62838
lhand -42.7668 -54.1195
lfingers 7.12502
lthumb -15.6337 -24.7312
rfemur -32.4125 -13.4927 11.4644
rtibia 11.7919
rfoot -176.157 -181.999
rtoes 21.2167
lfemur 24.923 1.54524 -32.5341
ltibia 50.0274
lfoot 2.97458 3.51661
ltoes -8.24252
143
root -0.201501 17.6653 -0.630282 103.015 76.0818 96.2995
lowerback 8.25921 -4.72905 -17.7806
upperback 0.706394 -7.79239 -2.0667
thorax -1.8101 -3.6712 8.26124
lowerneck -31.4421 6.36401 3.70383
upperneck 20.0966 7.53215 -1.51074
head 11.9067 3.44226 0.254814
rclavicle -7.95139e-015 -7.2954e-014
rhumerus -93.6062 16.6762 -98.6835
rradius 111.3
rwrist -21.2488
rhand -23.5494 -13.0197
rfingers 7.12502
rthumb 2.91248 -42.9796
lclavicle -7.95139e-015 -7.2954e-014
lhumerus -36.0308 -34.3838 93.5381
lradius 117.177
lwrist 10.1935
lhand -41.4186 -52.0889
lfingers 7.12502
lthumb -14.335 -22.6038
rfemur -32.412 -13.4234 11.0798
rtibia 13.1764
rfoot -176.673 -182.51
rtoes 20.3011
lfemur 24.6769 1.90613 -33.2089
ltibia 53.8717
lfoot 2.6023 3.4401
ltoes -6.94682
144
root 0.275553 17.5371 -0.665981 100.82 75.7301 94.4699
lowerback 8.63727 -4.41912 -17.9534
upperback 0.582188 -7.49783 -2.10447
thorax -2.22199 -3.47876 8.35929
lowerneck -30.8191 6.3186 3.7779
upperneck 19.9935 7.56312 -1.86669
head 11.7817 3.42121 0.0989148
rclavicle -1.70706e-014 -1.83876e-014
rhumerus -92.1136 16.8602 -98.3856
rradius 111.267
rwrist -20.9215
rhand -23.5335 -12.6542
rfingers 7.12502
rthumb 2.92787 -42.6139
lclavicle -1.70706e-014 -1.83876e-014
lhumerus -38.4129 -34.127 95.0578
lradius 116.261
lwrist 10.7248
lhand -41.3209 -50.2841
lfingers 7.12502
lthumb -14.2409 -20.7924
rfemur -32.1345 -12.9549 10.4173
rtibia 14.9802
rfoot -177.559 -183.393
rtoes 20.9321
lfemur 24.4202 2.26122 -33.7246
ltibia 57.859
lfoot 2.61342 3.35266
ltoes -4.89676
145
root 0.763609 17.4129 -0.696487 101.399 75.1632 95.797
lowerback 9.30448 -4.275 -18.2091
upperback 0.646304 -7.46446 -2.18059
thorax -2.5138 -3.43127 8.48244
lowerneck -30.2044 6.18476 3.73064
upperneck 19.8885 7.4776 -2.05577
head 11.6408 3.36312 0.00330276
rclavicle 8.03773e-014 5.86415e-014
rhumerus -90.3015 17.0914 -97.9713
rradius 111.106
rwrist -20.7076
rhand -23.3843 -12.4339
rfingers 7.12502
rthumb 3.07199 -42.3915
lclavicle 8.03773e-014 5.86415e-014
lhumerus -40.6957 -33.7191 96.4309
lradius 115.098
lwrist 11.2786
lhand -40.8868 -47.9566
lfingers 7.12502
lthumb -13.8225 -18.4358
rfemur -30.8889 -12.8477 9.21646
rtibia 16.4934
rfoot -178.403 -184.623
rtoes 21.7323
lfemur 24.4202 2.26122 -33.7246
ltibia 57.859
lfoot 2.61342 3.35266
ltoes -4.89676
146
root 1.24213 17.2756 -0.729454 99.3328 74.8359 94.3344
lowerback 9.73028 -3.92473 -18.4565
upperback 0.756912 -7.10419 -2.12979
thorax -2.6938 -3.23934 8.69442
lowerneck -29.9166 6.02831 3.41389
upperneck 19.8163 7.42437 -2.10912
head 11.5517 3.31249 0.0150487
rclavicle 4.74971e-014 -1.54058e-015
rhumerus -88.0225 17.5171 -97.2623
rradius 110.744
rwrist -20.4901
rhand -23.1166 -12.7277
rfingers 7.12502
rthumb 3.33046 -42.6815
lclavicle 4.74971e-014 -1.54058e-015
lhumerus -42.3507 -33.1956 97.6549
lradius 113.813
lwrist 11.634
lhand -40.4211 -45.3285
lfingers 7.12502
lthumb -13.3737 -15.7777
rfemur -30.2987 -12.7025 8.62804
rtibia 18.8213
rfoot -178.556 -184.947
rtoes 23.2493
lfemur 24.4202 2.26122 -33.7246
ltibia 57.859
lfoot 2.61342 3.35266
ltoes -4.89676
147
root 1.71798 17.1296 -0.754333 97.0027 74.9905 92.6046
lowerback 10.2579 -3.52087 -18.3017
upperback 0.777184 -6.67174 -1.96453
thorax -3.0864 -2.99638 8.82453
lowerneck -29.4933 5.93075 3.29516
upperneck 19.7664 7.39792 -2.25748
head 11.4614 3.27818 -0.0365982
rclavicle 2.8625e-014 -9.34288e-015
rhumerus -85.8435 17.9751 -96.7211
rradius 110.314
rwrist -20.2095
rhand -23.0324 -13.2218
rfingers 7.12502
rthumb 3.41179 -43.1742
lclavicle 2.8625e-014 -9.34288e-015
lhumerus -44.0477 -32.4787 98.8717
lradius 112.436
lwrist 12.2204
lhand -39.2163 -43.3951
lfingers 7.12502
lthumb -12.2122 -13.7717
rfemur -29.6642 -12.1916 8.67268
rtibia 21.3348
rfoot -178.717 -184.721
rtoes 24.2287
lfemur 24.4202 2.26122 -33.7246
ltibia 57.859
lfoot 2.61342 3.35266
ltoes -4.89676
